<svg width="708" height="363" xmlns="http://www.w3.org/2000/svg">

 <g>
  <title>background</title>
  <rect fill="none" id="canvas_background" height="402" width="582" y="-1" x="-1"/>
 </g>
 <g>
  <title>Layer 1</title>
  <g id="_x32_nd">
   <path d="m710.397,384.25l0,-187.213c-45.772,-33.447 -114.699,-60.115 -204.143,-61.975c-90.139,-1.875 -161.894,63.754 -253.488,76.816c-58.078,8.282 -111.789,2.07 -151.711,-3.379c-29.922,-4.084 -57.263,0.105 -67.151,3.28c-16.117,5.174 -29.506,11.756 -36.508,18.48l0,153.991" fill="#ACDE78" id="landscape"/>
   <path id="svg_1" d="m474.907,152.062c0,-2.796 11.344,-15.558 24.202,-32.547c10.104,-13.351 21.539,-29.028 24.178,-30.788c2.64,-1.759 4.851,-3.518 9.249,1.76c4.397,5.277 12.812,18.187 18.282,24.904c7.037,8.64 19.353,26.367 19.353,26.367s9.842,13.511 8.534,14.545c-4.005,3.172 -7.211,20.2 -9.85,21.08s-20.059,7.917 -29.734,7.037s-14.954,-0.88 -20.231,-0.88c-5.278,0 -16.714,-14.922 -24.631,-14.922c-7.916,0.001 -19.352,-13.763 -19.352,-16.556z" fill="#6DC274"/>
   <path id="svg_2" d="m498.92,138.68c-3.562,-1.781 -7.917,3.393 -7.917,7.194c0,3.801 3.519,7.319 7.917,4.241c4.397,-3.079 2.639,-10.116 0,-11.435z" fill="#ACDE78"/>
   <path id="svg_3" d="m463.298,162.43c0,0 6.737,-12.382 12.751,-15.393c10.269,-5.141 6.76,8.202 6.795,11.874c0.035,3.673 4.645,7.917 8.604,5.718c3.958,-2.199 4.838,-7.003 10.556,-7.68c5.717,-0.677 8.792,10.318 8.792,10.318s3.636,-5.718 10.016,-4.68c3.959,0.644 4.014,8.039 8.589,8.198c4.575,0.16 5.59,-12.28 15.705,-13.837c10.116,-1.557 11.343,9.942 16.887,4.633c5.545,-5.31 -0.139,-11.848 7.99,-14.531c6.872,-2.269 12.964,7.681 14.707,9.091c5.273,4.266 6.522,9.807 12.058,15.085c5.535,5.277 9.934,17.152 11.693,21.991c1.759,4.838 3.958,18.032 3.958,18.032s-99.84,-8.795 -149.101,-48.819z" fill="#ACDE78"/>
   <path id="svg_4" d="m363.229,189.022c0,0 14.912,-32.167 20.896,-41.125c6.942,-10.391 13.229,-27.167 16.487,-27.482c3.259,-0.315 13.056,21.72 22.27,35.613c7.023,10.591 15.114,32.994 15.114,32.994s-27.334,36.364 -74.767,0z" fill="#6DC274"/>
   <path id="svg_5" d="m424.335,159.148l13.047,28.211l2.475,-0.861c0,0 -4.275,-8.493 -6.472,-13.244c-2.197,-4.751 -7.108,-13.49 -9.05,-14.106z" fill="#498A6D"/>
   <path id="svg_6" d="m443.503,190.493c0,0 -5.514,-7.623 -11.407,-5.57c-5.893,2.052 0,9.676 0,9.676s-12.637,-2.933 -22.605,-1.466c-9.97,1.466 -17.301,7.916 -20.232,7.916s-8.21,-11.119 -13.487,-12.89c-5.278,-1.771 -8.414,2.806 -8.414,2.806s1.959,-7.507 0.788,-12.346s-9.381,7.918 -10.554,11.216s40.171,18.838 40.171,18.838s37.53,-6.158 45.74,-18.18z" fill="#ACDE78"/>
   <path id="svg_7" d="m369.832,181.11c0,0 -4.7,-4.802 -12.266,2.64c-5.141,5.058 -3.348,12.372 -6.133,11.729c-2.061,-0.476 -0.733,-10.779 5.424,-15.688c5.705,-4.548 18.473,-7.174 12.975,1.319z" fill="#6DC274"/>
   <path id="svg_8" d="m362.35,195.953c-1.754,-0.988 0.88,-5.46 5.729,-8.594c3.261,-2.106 5.198,0.322 6.142,0.447c1.576,0.208 6.08,1.541 3.948,1.001c-3.948,-1.001 -7.53,-0.221 -10.214,2.156c-2.707,2.396 -3.851,5.979 -5.605,4.99z" fill="#6DC274"/>
   <g id="svg_9">
    <path id="svg_10" d="m206.397,222.25l0,7.199c0,0 -0.301,1.801 1.5,1.801s1.5,-1.801 1.5,-1.801l0,-7.199l-3,0z" fill="#A88862"/>
    <path id="svg_11" d="m207.479,225.845c-3.603,0 -3.603,-1.801 -3.603,-1.801s-3.604,1.801 -5.405,0c-1.801,-1.801 0,-5.595 0,-5.595c1.801,-5.405 1.801,-9.199 1.801,-9.199l14.412,0c0,0 0,3.794 1.801,9.199c0,0 1.801,3.698 0,5.499c-1.801,1.802 -5.405,0.048 -5.405,0.048s0.001,1.849 -3.601,1.849z" fill="#3E7543"/>
    <path id="svg_12" d="m202.074,197.25c0,0 -1.801,7.093 -3.602,10.695c-0.807,1.612 0,3.546 1.801,3.546c3.604,0 3.604,-1.83 3.604,-1.83s0,3.587 3.603,3.587c3.602,0 3.602,-3.609 3.602,-3.609s0,1.798 3.604,1.798c1.801,0 2.607,-1.88 1.801,-3.492c-1.801,-3.603 -3.602,-10.697 -3.602,-10.697l-10.811,0l0,0.002z" fill="#5EA05B"/>
    <path id="svg_13" d="m207.479,179.91c-1.802,0 -5.405,10.808 -7.207,14.412c-1.801,3.602 0,5.403 1.801,5.403c1.803,0 1.803,-1.801 1.803,-1.801s0,3.603 3.603,3.603c3.602,0 3.602,-3.603 3.602,-3.603s0,1.801 1.803,1.801c1.801,0 3.602,-1.801 1.801,-5.403c-1.801,-3.604 -5.405,-14.414 -7.206,-14.412z" fill="#7EC172"/>
   </g>
   <g id="svg_14">
    <path id="svg_15" d="m219.397,237.25l0,7.01c0,0 -0.49,1.99 1.5,1.99s1.5,-1.99 1.5,-1.99l0,-7.01l-3,0z" fill="#A88862"/>
    <path id="svg_16" d="m220.556,240.278c-3.98,0 -3.98,-1.99 -3.98,-1.99s-3.982,1.99 -5.972,0c-1.99,-1.99 0,-6.027 0,-6.027c1.99,-5.973 1.99,-10.011 1.99,-10.011l15.923,0c0,0 0,4.038 1.99,10.011c0,0 1.99,4.009 0,5.999c-1.99,1.991 -5.972,0.015 -5.972,0.015s0.001,2.003 -3.979,2.003z" fill="#3E7543"/>
    <path id="svg_17" d="m214.584,209.25c0,0 -1.99,7.554 -3.98,11.535c-0.89,1.781 0,3.776 1.99,3.776c3.982,0 3.982,-2.091 3.982,-2.091s0,3.928 3.98,3.928s3.98,-4.004 3.98,-4.004s0,1.978 3.981,1.978c1.99,0 2.88,-1.799 1.99,-3.58c-1.99,-3.981 -3.98,-11.541 -3.98,-11.541l-11.943,0l0,-0.001z" fill="#5EA05B"/>
    <path id="svg_18" d="m220.556,189.526c-1.99,0 -5.972,11.941 -7.962,15.923c-1.99,3.98 0,5.97 1.99,5.97c1.992,0 1.992,-1.99 1.992,-1.99s0,3.98 3.98,3.98s3.98,-3.98 3.98,-3.98s0,1.99 1.992,1.99c1.99,0 3.98,-1.99 1.99,-5.97c-1.991,-3.981 -5.973,-15.924 -7.962,-15.923z" fill="#7EC172"/>
   </g>
   <g id="svg_19">
    <path id="svg_20" d="m44.397,221.25l0,7.948c0,0 -0.052,2.052 2,2.052s2,-2.052 2,-2.052l0,-7.948l-4,0z" fill="#A88862"/>
    <path id="svg_21" d="m46.111,225.092c-4.104,0 -4.104,-2.053 -4.104,-2.053s-4.106,2.053 -6.159,0c-2.052,-2.052 0,-6.341 0,-6.341c2.052,-6.159 2.052,-10.448 2.052,-10.448l16.421,0c0,0 0,4.289 2.052,10.448c0,0 2.052,4.198 0,6.249c-2.052,2.053 -6.158,0.047 -6.158,0.047s0.001,2.098 -4.104,2.098z" fill="#3E7543"/>
    <path id="svg_22" d="m39.953,192.25c0,0 -2.052,8.212 -4.104,12.316c-0.918,1.837 0,4.105 2.052,4.105c4.106,0 4.106,-2.052 4.106,-2.052s0,4.104 4.104,4.104s4.104,-4.104 4.104,-4.104s0,2.053 4.106,2.053c2.052,0 2.971,-2.269 2.052,-4.105c-2.052,-4.105 -4.104,-12.316 -4.104,-12.316l-12.316,0l0,-0.001z" fill="#5EA05B"/>
    <path id="svg_23" d="m46.111,172.751c-2.052,0 -6.159,12.315 -8.211,16.421c-2.052,4.104 0,6.157 2.052,6.157c2.054,0 2.054,-2.052 2.054,-2.052s0,4.104 4.104,4.104s4.104,-4.104 4.104,-4.104s0,2.052 2.054,2.052c2.052,0 4.104,-2.052 2.052,-6.157c-2.05,-4.105 -6.156,-16.422 -8.209,-16.421z" fill="#7EC172"/>
   </g>
   <g id="svg_24">
    <path id="svg_25" d="m104.397,236.25l0,8.037c0,0 -0.464,1.963 1.5,1.963c1.963,0 1.5,-1.963 1.5,-1.963l0,-8.037l-3,0z" fill="#A88862"/>
    <path id="svg_26" d="m105.596,240.358c-3.927,0 -3.927,-1.963 -3.927,-1.963s-3.928,1.963 -5.891,0c-1.963,-1.963 0,-6.108 0,-6.108c1.963,-5.891 1.963,-10.037 1.963,-10.037l15.71,0c0,0 0,4.146 1.963,10.037c0,0 1.963,4.037 0,6c-1.963,1.964 -5.891,0.055 -5.891,0.055s-0.001,2.016 -3.927,2.016z" fill="#3E7543"/>
    <path id="svg_27" d="m99.704,209.25c0,0 -1.963,7.701 -3.926,11.628c-0.879,1.757 0,3.85 1.963,3.85c3.928,0 3.928,-2.001 3.928,-2.001s0,3.906 3.927,3.906s3.927,-3.937 3.927,-3.937s0,1.959 3.928,1.959c1.963,0 2.842,-2.019 1.963,-3.776c-1.963,-3.927 -3.926,-11.63 -3.926,-11.63l-11.784,0l0,0.001z" fill="#5EA05B"/>
    <path id="svg_28" d="m105.596,190.287c-1.963,0 -5.892,11.782 -7.855,15.71c-1.963,3.926 0,5.89 1.963,5.89c1.965,0 1.965,-1.963 1.965,-1.963s0,3.927 3.927,3.927s3.927,-3.927 3.927,-3.927s0,1.963 1.965,1.963c1.963,0 3.926,-1.963 1.963,-5.89c-1.964,-3.928 -5.892,-15.711 -7.855,-15.71z" fill="#7EC172"/>
   </g>
   <g id="svg_29">
    <path id="svg_30" d="m589.397,245.25l0,7.165c0,0 -0.336,1.835 1.5,1.835c1.835,0 1.5,-1.835 1.5,-1.835l0,-7.165l-3,0z" fill="#A88862"/>
    <path id="svg_31" d="m590.291,248.742c-3.672,0 -3.672,-1.836 -3.672,-1.836s-3.673,1.836 -5.508,0c-1.836,-1.835 0,-5.992 0,-5.992c1.835,-5.508 1.835,-9.664 1.835,-9.664l14.688,0c0,0 0,4.156 1.836,9.664c0,0 1.835,3.915 0,5.75c-1.836,1.836 -5.509,0.122 -5.509,0.122s0.001,1.956 -3.67,1.956z" fill="#3E7543"/>
    <path id="svg_32" d="m584.782,219.25c0,0 -1.836,7.403 -3.671,11.074c-0.822,1.644 0,3.701 1.835,3.701c3.673,0 3.673,-1.821 3.673,-1.821s0,3.678 3.672,3.678c3.671,0 3.671,-3.667 3.671,-3.667s0,1.838 3.673,1.838c1.836,0 2.657,-2.087 1.836,-3.729c-1.836,-3.672 -3.672,-11.074 -3.672,-11.074l-11.017,0z" fill="#5EA05B"/>
    <path id="svg_33" d="m590.291,201.926c-1.836,0 -5.509,11.016 -7.345,14.688c-1.835,3.671 0,5.507 1.836,5.507c1.837,0 1.837,-1.836 1.837,-1.836s0,3.671 3.672,3.671c3.671,0 3.671,-3.671 3.671,-3.671s0,1.836 1.837,1.836c1.836,0 3.672,-1.836 1.836,-5.507c-1.836,-3.673 -5.509,-14.69 -7.344,-14.688z" fill="#7EC172"/>
   </g>
   <g id="tree">
    <path id="svg_34" d="m642.397,286.25l0,7.943c0,0 -0.057,2.057 2,2.057s2,-2.057 2,-2.057l0,-7.943l-4,0z" fill="#A88862"/>
    <path id="svg_35" d="m644.087,290.078c-4.113,0 -4.113,-2.057 -4.113,-2.057s-4.115,2.057 -6.172,0s0,-6.328 0,-6.328c2.057,-6.172 2.057,-10.443 2.057,-10.443l16.457,0c0,0 0,4.271 2.057,10.443c0,0 2.057,4.193 0,6.249c-2.057,2.058 -6.172,0.04 -6.172,0.04s-0.001,2.096 -4.114,2.096z" fill="#3E7543"/>
    <path id="svg_36" d="m637.915,257.25c0,0 -2.057,8.188 -4.113,12.301c-0.92,1.841 0,4.093 2.057,4.093c4.115,0 4.115,-2.067 4.115,-2.067s0,4.107 4.113,4.107s4.113,-4.116 4.113,-4.116s0,2.056 4.115,2.056c2.057,0 2.978,-2.233 2.057,-4.073c-2.057,-4.114 -4.113,-12.301 -4.113,-12.301l-12.344,0z" fill="#5EA05B"/>
    <path id="svg_37" d="m644.087,237.625c-2.057,0 -6.172,12.342 -8.229,16.457c-2.057,4.114 0,6.17 2.057,6.17c2.059,0 2.059,-2.057 2.059,-2.057s0,4.113 4.113,4.113s4.113,-4.113 4.113,-4.113s0,2.057 2.059,2.057c2.057,0 4.113,-2.057 2.057,-6.17c-2.057,-4.115 -6.172,-16.459 -8.229,-16.457z" fill="#7EC172"/>
   </g>
   <path id="svg_38" d="m445.403,161.715c23.677,25.308 87.363,18.403 78.091,51.661c-9.617,34.494 -196.731,-21.958 -197.261,44.875c-0.513,64.718 161.398,45.4 197.261,134" stroke-dasharray="16,18" stroke-opacity="0.5" stroke-miterlimit="10" stroke-linejoin="round" stroke-linecap="round" stroke-width="5" stroke="#FFFFFF" fill="none"/>
   <g id="shrub">
    <path id="svg_39" d="m373.092,253.931c0,0 -4.442,1.426 -5.763,4.549c-2.99,7.073 2.717,9.784 2.717,9.784l7.25,5.375c0,0 5.709,4.581 11.477,1.736c4.429,-2.185 5.247,-4.763 5.247,-4.763s3.942,2.124 7.582,0c3.639,-2.123 3.639,-6.976 3.639,-6.976s3.943,-3.641 3.337,-8.796c-0.606,-5.156 -7.582,-5.763 -7.582,-5.763s-1.517,-6.37 -6.976,-7.886c-5.46,-1.517 -10.01,3.64 -10.01,3.64s-4.246,-2.426 -7.886,0.304s-3.032,8.796 -3.032,8.796z" fill="#7EC66A"/>
    <circle id="svg_40" r="1.833" cy="270.084" cx="388.231" fill="#68AF5B"/>
    <ellipse id="svg_41" ry="1.667" rx="1.5" cy="254.25" cx="395.23" fill="#68AF5B"/>
   </g>
  </g>
 </g>
</svg>