<svg width="708" height="363" xmlns="http://www.w3.org/2000/svg">
 <g>
  <title>background</title>
  <rect x="-1" y="-1" width="710" height="365" id="canvas_background" fill="none"/>
 </g>

 <g>
  <title>Layer 1</title>
  <g id="_x33_rd">
   <g id="bg_mountain">
    <path fill="#498A6D" d="m335.378,188.037c5.82,-21.157 54.646,-69.301 68.68,-84.012c24.83,-26.031 50.049,-58.652 67.508,-60.172c17.46,-1.522 52.981,64.78 57.336,77.025c4.355,12.246 42.769,84.324 42.769,84.324s-59.363,19.112 -148.99,17.166c-89.629,-1.945 -87.303,-34.331 -87.303,-34.331z" id="svg_1"/>
    <path fill="#6DC274" d="m427.337,188.037c-17.073,-1.758 -26.386,17.166 -26.386,17.166s-6.208,-12.713 -20.952,-12.713c-7.368,0 -16.675,5.621 -24.145,11.245c-9.754,-5.011 -5.844,-21.084 -6.513,-27.184c-1.76,-16.091 -18.202,-5.042 -28.315,5.428c-10.11,10.472 -32.808,23.56 -43.456,31.463c-20.952,15.548 -4.474,37.416 16.792,27.158c8.04,-3.879 6.489,18.624 26.664,24.832c20.174,6.208 31.477,-0.486 31.477,-0.486s13.889,2.473 28.853,2.667c20.953,0.269 33.186,-15.763 33.186,-15.763l15.375,-22.868c0.209,0 0.408,-0.002 0.524,-0.023c4.654,-0.775 10.865,-13.967 10.865,-13.967s3.103,-25.198 -13.969,-26.955z" id="svg_2"/>
    <path id="snow" fill="#FFFFFF" d="m406.36,101.593c0,0 44.032,-67.74 65.205,-67.74c21.172,0 50.112,71.727 50.112,71.727s-3.659,6.853 -14.245,7.515s-15.878,-14.557 -27.126,-13.895s-22.443,9.924 -35.041,9.924c-12.597,0 -11.31,-10.724 -22.521,-11.909c-11.212,-1.185 -16.384,4.378 -16.384,4.378z"/>
   </g>
   <g id="bg_trees">
    <g id="svg_3">
     <path fill="#A88862" d="m333.397,178.25l0,3.162c0,0 0.19,0.81 1,0.81s1,-0.81 1,-0.81l0,-3.162l-2,0z" id="svg_4"/>
     <path fill="#3E7543" d="m334.1,179.791c-1.62,0 -1.62,-0.81 -1.62,-0.81s-1.621,0.81 -2.43,0c-0.81,-0.81 0,-2.555 0,-2.555c0.81,-2.431 0.81,-4.177 0.81,-4.177l6.48,0c0,0 0,1.746 0.81,4.177c0,0 0.81,1.682 0,2.491c-0.81,0.811 -2.43,0.033 -2.43,0.033s0,0.841 -1.62,0.841z" id="svg_5"/>
     <path fill="#5EA05B" d="m331.67,167.25c0,0 -0.811,3.031 -1.62,4.651c-0.362,0.724 0,1.515 0.81,1.515c1.621,0 1.621,-0.862 1.621,-0.862s0,1.593 1.62,1.593c1.62,0 1.62,-1.632 1.62,-1.632s0,0.803 1.62,0.803c0.81,0 1.172,-0.689 0.81,-1.414c-0.81,-1.62 -1.62,-4.654 -1.62,-4.654l-4.861,0z" id="svg_6"/>
     <path fill="#7EC172" d="m334.1,159.137c-0.81,0 -2.43,4.86 -3.241,6.48c-0.81,1.62 0,2.43 0.811,2.43c0.81,0 0.81,-0.81 0.81,-0.81s0,1.62 1.62,1.62c1.62,0 1.62,-1.62 1.62,-1.62s0,0.81 0.81,0.81s1.62,-0.81 0.81,-2.43s-2.43,-6.481 -3.24,-6.48z" id="svg_7"/>
    </g>
    <g id="svg_8">
     <path fill="#A88862" d="m321.397,188.25l0,3.19c0,0 0.19,0.81 1,0.81s1,-0.81 1,-0.81l0,-3.19l-2,0z" id="svg_9"/>
     <path fill="#3E7543" d="m321.564,189.82c-1.62,0 -1.62,-0.81 -1.62,-0.81s-1.62,0.81 -2.43,0c-0.81,-0.81 0,-2.569 0,-2.569c0.81,-2.431 0.81,-4.19 0.81,-4.19l6.48,0c0,0 0,1.76 0.81,4.19c0,0 0.81,1.689 0,2.499c-0.81,0.811 -2.43,0.036 -2.43,0.036s0,0.844 -1.62,0.844z" id="svg_10"/>
     <path fill="#5EA05B" d="m319.134,177.25c0,0 -0.81,3.046 -1.62,4.666c-0.362,0.724 0,1.521 0.81,1.521c1.62,0 1.62,-0.858 1.62,-0.858s0,1.595 1.62,1.595c1.62,0 1.62,-1.632 1.62,-1.632s0,0.803 1.62,0.803c0.81,0 1.172,-0.703 0.81,-1.428c-0.81,-1.62 -1.62,-4.668 -1.62,-4.668l-4.86,0l0,0.001z" id="svg_11"/>
     <path fill="#7EC172" d="m321.564,169.165c-0.81,0 -2.43,4.86 -3.24,6.48c-0.81,1.62 0,2.43 0.81,2.43s0.81,-0.81 0.81,-0.81s0,1.62 1.62,1.62c1.62,0 1.62,-1.62 1.62,-1.62s0,0.81 0.811,0.81c0.81,0 1.62,-0.81 0.81,-2.43c-0.81,-1.62 -2.43,-6.48 -3.241,-6.48z" id="svg_12"/>
    </g>
    <g id="svg_13">
     <path fill="#A88862" d="m340.397,181.25l0,2.601c0,0 0.173,0.828 1,0.828s1,-0.828 1,-0.828l0,-2.601l-2,0z" id="svg_14"/>
     <path fill="#3E7543" d="m341.345,182.195c-1.655,0 -1.655,-0.828 -1.655,-0.828s-1.656,0.828 -2.484,0c-0.828,-0.828 0,-2.73 0,-2.73c0.828,-2.484 0.828,-4.387 0.828,-4.387l6.623,0c0,0 0,1.903 0.828,4.387c0,0 0.828,1.779 0,2.606c-0.828,0.828 -2.484,0.062 -2.484,0.062s-0.001,0.89 -1.656,0.89z" id="svg_15"/>
     <path fill="#5EA05B" d="m338.861,169.25c0,0 -0.828,3.162 -1.656,4.817c-0.371,0.74 0,1.581 0.828,1.581c1.656,0 1.656,-0.866 1.656,-0.866s0,1.636 1.655,1.636s1.655,-1.664 1.655,-1.664s0,0.823 1.656,0.823c0.828,0 1.199,-0.767 0.828,-1.507c-0.828,-1.656 -1.655,-4.82 -1.655,-4.82l-4.967,0z" id="svg_16"/>
     <path fill="#7EC172" d="m341.345,161.084c-0.828,0 -2.483,4.967 -3.312,6.623c-0.828,1.655 0,2.483 0.828,2.483s0.828,-0.828 0.828,-0.828s0,1.656 1.655,1.656s1.655,-1.656 1.655,-1.656s0,0.828 0.829,0.828c0.827,0 1.655,-0.828 0.827,-2.483c-0.826,-1.656 -2.482,-6.623 -3.31,-6.623z" id="svg_17"/>
    </g>
   </g>
  </g>
 </g>
</svg>