<svg width="708" height="363" xmlns="http://www.w3.org/2000/svg">

 <g>
  <title>background</title>
  <rect fill="none" id="canvas_background" height="402" width="582" y="-1" x="-1"/>
 </g>
 <g>
  <title>Layer 1</title>
  <g id="_x31_st">
   <path d="m709.397,375.25l0,-123.499c0,0 5.362,13.809 -52.836,48.917c-61.138,36.881 -290.822,29.453 -389.842,-9.68c-99.019,-39.134 -221.916,-109.499 -268.322,-74.384l0,158.646" fill="#7EC172" id="landscape_4_"/>
   <path id="svg_1" d="m413.397,328.93c-59.031,90 -200.408,-83.025 -223.991,40.32" stroke-dasharray="16,18" stroke-opacity="0.5" stroke-miterlimit="10" stroke-linejoin="round" stroke-linecap="round" stroke-width="5" stroke="#FFFFFF" fill="none"/>
   <g id="svg_2">
    <path id="svg_3" d="m550.397,316.25l0,16.746c0,0 -0.755,4.254 3.5,4.254s3.5,-4.254 3.5,-4.254l0,-16.746l-7,0z" fill="#A88862"/>
    <path id="svg_4" d="m553.119,324.483c-8.51,0 -8.51,-4.255 -8.51,-4.255s-8.513,4.255 -12.768,0c-4.254,-4.254 0,-13.233 0,-13.233c4.255,-12.768 4.255,-21.745 4.255,-21.745l34.044,0c0,0 0,8.978 4.255,21.745c0,0 4.255,8.746 0,12.999c-4.255,4.256 -12.768,0.118 -12.768,0.118s0.001,4.371 -8.508,4.371z" fill="#3E7543"/>
    <path id="svg_5" d="m540.352,257.25c0,0 -4.255,16.598 -8.51,25.107c-1.903,3.808 0,8.297 4.255,8.297c8.513,0 8.513,-4.359 8.513,-4.359s0,8.454 8.51,8.454c8.509,0 8.509,-8.535 8.509,-8.535s0,4.243 8.513,4.243c4.255,0 6.159,-4.285 4.255,-8.092c-4.255,-8.511 -8.51,-25.114 -8.51,-25.114l-25.535,0l0,-0.001z" fill="#5EA05B"/>
    <path id="svg_6" d="m553.119,215.974c-4.255,0 -12.768,25.531 -17.022,34.044c-4.255,8.509 0,12.764 4.255,12.764c4.258,0 4.258,-4.254 4.258,-4.254s0,8.509 8.51,8.509c8.509,0 8.509,-8.509 8.509,-8.509s0,4.254 4.258,4.254c4.255,0 8.51,-4.254 4.255,-12.764c-4.256,-8.513 -12.769,-34.047 -17.023,-34.044z" fill="#7EC172"/>
   </g>
   <g id="svg_7">
    <path id="svg_8" d="m155.397,260.25l0,17.508c0,0 -0.492,4.492 4,4.492s4,-4.492 4,-4.492l0,-17.508l-8,0z" fill="#A88862"/>
    <path id="svg_9" d="m158.827,268.771c-8.984,0 -8.984,-4.492 -8.984,-4.492s-8.987,4.492 -13.479,0c-4.492,-4.492 0,-14.021 0,-14.021c4.492,-13.479 4.492,-23.008 4.492,-23.008l35.942,0c0,0 0,9.528 4.492,23.008c0,0 4.492,9.258 0,13.749c-4.492,4.494 -13.479,0.137 -13.479,0.137s0,4.627 -8.984,4.627z" fill="#3E7543"/>
    <path id="svg_10" d="m145.347,197.25c0,0 -4.492,17.793 -8.984,26.776c-2.01,4.021 0,8.895 4.492,8.895c8.987,0 8.987,-4.536 8.987,-4.536s0,8.959 8.984,8.959s8.984,-8.995 8.984,-8.995s0,4.488 8.987,4.488c4.492,0 6.502,-4.79 4.492,-8.808c-4.492,-8.986 -8.984,-26.78 -8.984,-26.78l-26.958,0l0,0.001z" fill="#5EA05B"/>
    <path id="svg_11" d="m158.827,154.21c-4.492,0 -13.479,26.955 -17.971,35.942c-4.492,8.984 0,13.476 4.492,13.476c4.496,0 4.496,-4.492 4.496,-4.492s0,8.984 8.984,8.984s8.984,-8.984 8.984,-8.984s0,4.492 4.496,4.492c4.492,0 8.984,-4.492 4.492,-13.476c-4.494,-8.986 -13.481,-35.945 -17.973,-35.942z" fill="#7EC172"/>
   </g>
   <g id="svg_12">
    <path id="svg_13" d="m266.397,285.25l0,17.636c0,0 -0.865,4.364 3.5,4.364s3.5,-4.364 3.5,-4.364l0,-17.636l-7,0z" fill="#A88862"/>
    <path id="svg_14" d="m269.246,294.153c-8.729,0 -8.729,-4.365 -8.729,-4.365s-8.733,4.365 -13.097,0c-4.364,-4.364 0,-13.902 0,-13.902c4.364,-13.098 4.364,-22.636 4.364,-22.636l34.923,0c0,0 0,9.538 4.365,22.636c0,0 4.364,9.135 0,13.498c-4.365,4.367 -13.098,0.204 -13.098,0.204s0.001,4.565 -8.728,4.565z" fill="#3E7543"/>
    <path id="svg_15" d="m256.148,225.25c0,0 -4.365,16.993 -8.729,25.723c-1.954,3.906 0,8.495 4.364,8.495c8.733,0 8.733,-4.48 8.733,-4.48s0,8.668 8.729,8.668s8.729,-8.758 8.729,-8.758s0,4.352 8.732,4.352c4.365,0 6.318,-4.363 4.365,-8.269c-4.365,-8.73 -8.729,-25.73 -8.729,-25.73l-26.194,0l0,-0.001z" fill="#5EA05B"/>
    <path id="svg_16" d="m269.246,182.841c-4.364,0 -13.097,26.191 -17.462,34.923c-4.364,8.729 0,13.094 4.365,13.094c4.368,0 4.368,-4.365 4.368,-4.365s0,8.729 8.729,8.729s8.729,-8.729 8.729,-8.729s0,4.365 4.368,4.365c4.364,0 8.729,-4.365 4.364,-13.094c-4.364,-8.732 -13.097,-34.927 -17.461,-34.923z" fill="#7EC172"/>
   </g>
  </g>
 </g>
</svg>