<svg width="50" height="50" xmlns="http://www.w3.org/2000/svg">
 <g>
  <g id="svg_1">
   <path id="svg_2" d="m24.413879,2.616822c5.424,0 10.764,2.498 10.764,8.473c0,5.51 -6.314,7.629 -7.67,9.62c-1.018,1.481 -0.678,3.562 -3.475,3.562c-1.822,0 -2.712,-1.482 -2.712,-2.838c0,-5.046 7.414,-6.188 7.414,-10.343c0,-2.287 -1.522,-3.643 -4.066,-3.643c-5.424,0 -3.306,5.592 -7.414,5.592c-1.483,0 -2.756,-0.89 -2.756,-2.584c-0.001,-4.156 4.744,-7.839 9.915,-7.839zm-0.211,24.406c1.904,0 3.475,1.566 3.475,3.476c0,1.91 -1.568,3.476 -3.475,3.476c-1.907,0 -3.476,-1.564 -3.476,-3.476c0,-1.909 1.569,-3.476 3.476,-3.476z" fill="#eeeeee"/>
  </g>
 </g>
</svg>