<?xml version="1.0" encoding="UTF-8" standalone="no"?>
<svg version="1.1" id="Layer_1" xmlns="http://www.w3.org/2000/svg" xmlns:xlink="http://www.w3.org/1999/xlink" x="0px" y="0px" 
  width="100" height="100" viewBox="0 0 100 100" enable-background="new 0 0 100 100" xml:space="preserve">
<path fill="#0061b1"
   d="M 63.943,64.941 V 60.56 c 2.389,-1.383 4,-3.961 4,-6.92 0,-4.417 -3.582,-7.999 -8,-7.999 -1.6,0 -3.082,0.48 -4.333,1.291 -1.231,-5.317 -5.974,-9.29 -11.665,-9.29 -6.626,0 -11.998,5.372 -11.998,11.998 0,3.55 1.551,6.728 4,8.925 v 4.916 c -4.777,-2.768 -8,-7.922 -8,-13.841 0,-8.835 7.163,-15.997 15.998,-15.997 6.004,0 11.229,3.311 13.965,8.203 0.664,-0.113 1.338,-0.205 2.033,-0.205 6.627,0 11.999,5.372 11.999,11.999 0,5.223 -3.341,9.653 -7.999,11.301 z"
   id="path4733" /><path fill="#0061b1"
   d="m 41.946,53.641 c 1.104,0 1.999,0.896 1.999,2 v 15.998 c 0,1.105 -0.895,2 -1.999,2 -1.104,0 -2,-0.895 -2,-2 V 55.641 c 0,-1.104 0.896,-2 2,-2 z"
   id="path4731" /><path fill="#0061b1"
   d="m 49.945,57.641 c 1.104,0 2,0.895 2,2 v 15.998 c 0,1.104 -0.896,2 -2,2 -1.104,0 -2,-0.896 -2,-2 V 59.641 c 0,-1.106 0.896,-2 2,-2 z"
   id="path4729" /><path fill="#0061b1"
   d="m 57.944,53.641 c 1.104,0 1.999,0.896 1.999,2 v 15.998 c 0,1.105 -0.895,2 -1.999,2 -1.104,0 -2,-0.895 -2,-2 V 55.641 c 0,-1.104 0.896,-2 2,-2 z"
   id="path4718" />
</svg>